<svg xmlns="http://www.w3.org/2000/svg" width="190" height="12" viewBox="0 0 190 12"><defs><filter id="dj9pa" width="210" height="30" x="-10" y="-9" filterUnits="userSpaceOnUse"><feOffset dy="1" in="SourceGraphic" result="FeOffset1022Out"/><feGaussianBlur in="FeOffset1022Out" result="FeGaussianBlur1023Out" stdDeviation="0 0"/></filter><clipPath id="dj9pb"><path fill="#fff" d="M0 1c25.434 0 25.89 9 48 9 22.109 0 29.213-9 47-9s29.047 9 47 9 24.229-9 48-9"/></clipPath></defs><g><g><g filter="url(#dj9pa)"><path fill="none" stroke="#3d3029" stroke-width="2" d="M0 1c25.434 0 25.89 9 48 9 22.109 0 29.213-9 47-9s29.047 9 47 9 24.229-9 48-9"/></g><path fill="none" stroke="#fff" stroke-dasharray="8 16" stroke-miterlimit="50" stroke-width="4" d="M0 1c25.434 0 25.89 9 48 9 22.109 0 29.213-9 47-9s29.047 9 47 9 24.229-9 48-9" clip-path="url(&quot;#dj9pb&quot;)"/></g></g></svg>